<svg xmlns="http://www.w3.org/2000/svg" viewBox="0 0 1440 320"><path fill="#fff" fill-opacity="1" d="M0,288L34.3,261.3C68.6,235,137,181,206,133.3C274.3,85,343,43,411,53.3C480,64,549,128,617,165.3C685.7,203,754,213,823,208C891.4,203,960,181,1029,186.7C1097.1,192,1166,224,1234,224C1302.9,224,1371,192,1406,176L1440,160L1440,320L1405.7,320C1371.4,320,1303,320,1234,320C1165.7,320,1097,320,1029,320C960,320,891,320,823,320C754.3,320,686,320,617,320C548.6,320,480,320,411,320C342.9,320,274,320,206,320C137.1,320,69,320,34,320L0,320Z"></path></svg>